<?xml version="1.0" encoding="UTF-8" standalone="no"?>
<!-- Created with Inkscape (http://www.inkscape.org/) -->

<svg
   version="1.1"
   id="svg2"
   width="682.66669"
   height="682.66669"
   viewBox="0 0 682.66669 682.66669"
   xmlns="http://www.w3.org/2000/svg"
   xmlns:svg="http://www.w3.org/2000/svg">
  <defs
     id="defs6" />
  <g
     id="g8">
    <path
       style="fill:#000000;stroke-width:1.33333"
       d="M 276.43187,677.56927 C 154.79358,654.56504 55.11249,568.76496 15.05324,452.58875 3.4933495,419.06383 -0.99174046,395.15691 -0.65057046,368.8826 c 0.13331,-10.26666 0.42698,-15.36666 0.6526,-11.33333 C 3.8156495,425.7247 26.73717,488.45005 68.21504,544.21594 c 14.82064,19.92596 46.95753,52.06284 66.88349,66.88348 55.47045,41.25814 118.85242,64.41961 186.66667,68.21302 4.03333,0.22563 -1.66667,0.46471 -12.66667,0.53129 -14.10344,0.0853 -23.73449,-0.5852 -32.66666,-2.27446 z m 87.4076,1.28729 c 58.95775,-4.60747 113.17202,-23.30123 162.29015,-55.95971 87.9801,-58.49767 144.00165,-153.86414 151.52283,-257.93998 1.06527,-14.74093 1.06527,-14.74093 1.25143,3.92573 0.26267,26.34004 -4.25731,50.34696 -15.76004,83.70615 -15.41981,44.71912 -38.20966,82.97615 -70.4681,118.29386 -49.04237,53.69337 -107.43573,87.52208 -180.91054,104.80592 -12.29668,2.8926 -18.54484,3.52039 -38.66666,3.88506 -21.97818,0.3983 -22.75819,0.3379 -9.25907,-0.71703 z M 155.09853,389.54927 c 0,-126.66667 0,-126.66667 43.33333,-126.66667 43.33334,0 43.33334,0 43.33334,126.66667 0,126.66667 0,126.66667 -43.33334,126.66667 -43.33333,0 -43.33333,0 -43.33333,-126.66667 z m 82.66667,0.66667 c 0,-123.33334 0,-123.33334 -39.33334,-123.33334 -39.33333,0 -39.33333,0 -39.33333,123.33334 0,123.33333 0,123.33333 39.33333,123.33333 39.33334,0 39.33334,0 39.33334,-123.33333 z m 46.66667,-0.68514 c 0,-126.68515 0,-126.68515 43,-126.33333 43,0.3518 43,0.3518 43.37717,14.56048 0.37719,14.20868 0.37719,14.20868 10.69623,3.88964 12.02148,-12.02148 24.51801,-18.92551 40.25993,-22.24262 14.14143,-2.97985 41.19818,-1.92382 54.00001,2.10763 37.23922,11.72709 59.28815,42.40575 64.57901,89.85466 0.84022,7.53512 1.42099,43.82718 1.42099,88.79613 0,76.05255 0,76.05255 -43.25351,76.05255 -43.25349,0 -43.25349,0 -43.7362,-75.66667 -0.53727,-84.22188 -0.59652,-84.82449 -9.69216,-98.58773 -6.5534,-9.91642 -14.17158,-14.04305 -27.33124,-14.80485 -7.49238,-0.43372 -12.2027,0.0261 -17.17112,1.67639 -9.12695,3.03148 -20.26091,13.29536 -25.09012,23.1294 -3.72566,7.58679 -3.72566,7.58679 -4.09978,85.92013 -0.37413,78.33333 -0.37413,78.33333 -43.66667,78.33333 -43.29254,0 -43.29254,0 -43.29254,-126.68514 z m 82.93943,47.01847 c 0.3939,-77 0.3939,-77 4.51997,-85.66667 7.8682,-16.52691 21.91477,-26.45324 39.18173,-27.68869 16.93627,-1.21179 31.20994,5.68592 38.62201,18.66396 7.751,13.57149 8.0702,17.45908 8.0702,98.28795 0,73.40345 0,73.40345 40.07281,73.40345 40.07283,0 40.07283,0 39.61811,-84.33333 -0.45472,-84.33334 -0.45472,-84.33334 -3.91535,-97.01531 -10.41615,-38.17152 -31.05011,-59.98503 -65.10891,-68.83091 -11.88861,-3.08775 -36.43643,-3.06407 -47.89339,0.0463 -17.54057,4.76182 -32.63141,14.7535 -43.37985,28.7219 -9.23739,12.00462 -10.06009,11.30224 -10.06009,-8.58862 0,-16.66667 0,-16.66667 -39.66667,-16.66487 -39.66667,10e-4 -39.66667,10e-4 -39.7602,123.33334 -0.0935,123.33153 -0.0935,123.33153 39.60609,123.33153 39.69963,0 39.69963,0 40.09354,-77 z m -368.02187046,-125 c -0.24908,-19.18263 1.38338,-32.46968 6.55258996,-53.33334 C 34.5168,142.72274 121.04393,49.941033 233.9443,13.689727 264.91331,3.7458528 285.73568,0.14615785 310.43187,0.46683285 c 10.26666,0.133311 15.36666,0.42698 11.33333,0.65259795 C 253.25753,4.9516348 191.38186,27.577378 135.09853,69.376843 117.44934,82.484213 85.07565,114.12695 72.17197,130.88259 28.22319,187.95088 3.9354395,252.56569 0.00202954,322.8826 c -0.22562,4.03333 -0.51929,-1.06667 -0.6526,-11.33333 z M 678.05637,321.28423 C 677.65684,309.02793 674.2142,283.55239 670.98752,268.9746 660.18533,220.17154 640.45721,177.2643 609.94702,136.21593 596.82774,118.56526 565.16364,86.174653 548.43188,73.289373 491.42134,29.385058 426.67763,5.0488598 356.43187,1.1194308 c -4.03333,-0.22561795 1.13807,-0.52120395 11.49201,-0.65685795 19.96808,-0.261615 32.55444,1.35799495 55.2651,7.11149895 70.51367,17.8638932 133.80144,58.0168612 181.0054,114.8390082 45.35858,54.60076 75.96334,132.48253 74.58575,189.80285 -0.23793,9.9 -0.56361,13.98074 -0.72376,9.0683 z M 182.14658,230.35526 c -13.71677,-4.46666 -22.2532,-11.84797 -27.91696,-24.13933 -2.96876,-6.44275 -3.69345,-9.94657 -3.72286,-18 -0.0701,-19.19863 8.4777,-33.22428 24.8578,-40.78771 7.66404,-3.53884 9.68666,-3.87896 23.0673,-3.87896 18.01272,0 25.03748,2.34438 34.85958,11.63371 9.87731,9.34153 13.09553,17.28496 13.11303,32.36629 0.0164,14.09255 -2.52048,20.98114 -11.19049,30.38699 -8.41134,9.12523 -19.09988,13.38528 -34.78212,13.86288 -8.12358,0.2474 -14.68186,-0.27047 -18.28528,-1.44387 z m 35.5773,-5.19776 c 9.62246,-3.54312 20.0776,-13.8706 23.1396,-22.85708 2.85721,-8.38548 2.85744,-21.11258 5.2e-4,-29.51364 -3.09855,-9.1116 -14.60531,-20.35736 -24.43214,-23.87796 -10.10529,-3.62036 -26.02801,-3.41557 -36.1058,0.46438 -15.69885,6.04406 -25.22053,18.89604 -26.24158,35.41984 -2.00035,32.37164 30.08228,52.72064 63.6394,40.36446 z"
       id="path293" />
  </g>
</svg>
